<?xml version="1.0" encoding="UTF-8"?>
<svg id="Capa_1" xmlns="http://www.w3.org/2000/svg" version="1.1" viewBox="0 0 1646 512.4">
  <!-- Generator: Adobe Illustrator 30.8.1, SVG Export Plug-In . SVG Version: 2.1.4 Build 1)  -->
  <defs>
    <style>
      .st0 {
        fill: #1ac680;
      }
    </style>
  </defs>
  <g>
    <g>
      <path class="st0" d="M933.7,261.6c-7.8-1.8-16.7-3.8-25.9-5.6-2.4-.5-4.9-1.1-7.3-1.7-.3.2-.7.4-1,.6-1.3.7-2.7,1.2-3.5,2.6-1.2,1.6-2.1,3.3-1.5,5.3.5,1.8.5,3.5-.6,5.1-.2.9-.7,1.6-1.4,2.2-1.1,1-2.1,2-3.1,3.1-.1.5-.3,1-.7,1.5-1.7,2.4-1.3,4.7-.3,7.2.8,1.9,2.6,2.4,3.9,3.6.3.1.5.3.7.5.5.7,1.2,1.3,1,2.2,0,.4-.2.7-.1,1.1.4,1.1.3,2.4,1,3.4,1.6,2,4,2.7,6.3,3.3,2.2.6,4,0,5.5-1.6.3-.4.8-.5,1.2-.8.5-1,1.1-1.4,2.1-.4.2.2.6.3.9.4,1.8.9,3.6.7,5.5.5,5.3-2.1,9.1-5.7,11.5-10.9,1.1-2.4,2-4.8,3.8-6.8,4.2-4.8,9.4-8.4,14.7-11.9.3-.2.7-.4,1-.6l-9.4-1.1c-1.4-.3-2.9-.6-4.3-1Z"/>
      <path class="st0" d="M742.9,255.4c.2-.2.2-.7.4-1,.8-1.8.4-3.7.1-5.5-1.2-2.4-2.6-4.5-4.4-6.3-5.5,4.1-11.4,8.2-17.7,12.1-3.4,2.1-7,3.7-10.5,4.9-1.1.4-2.3.7-3.4,1l-5.4,1.8c1,2.1,2.2,4.1,3.5,6,.7,1.3,1.4,2.6,2.8,3.3,1.7,1.1,3.4,1.9,5.4,1.1,1.8-.7,3.4-.7,5.1.3.9.2,1.6.6,2.3,1.3,1,1,2.2,2,3.3,2.9.5.1,1,.3,1.5.6,2.5,1.5,4.8,1,7.2-.2,1.8-.9,2.2-2.8,3.4-4.1.1-.3.3-.5.5-.7.6-.6,1.2-1.2,2.2-1.1.4,0,.7.2,1.1,0,1.1-.5,2.3-.4,3.3-1.2,1.9-1.8,2.4-4.1,2.9-6.5.5-2.2-.2-4-2-5.4-.4-.3-.6-.8-.9-1.2-1-.5-1.5-1-.5-2Z"/>
      <g>
        <path class="st0" d="M766.7,104c-.8,1.4-1.7,1.4-2.7.2-6.4-7.1-15.4-14.5-16.8-24.3-.8-5.6-.2-19.7.1-26.2.1-2.5-.6-5-2-7.1-4.1-6.1-9.6-8.2-18.6-7.2-22.3,2.5-37.7,15.6-49.3,33.7-15.8,24.7-6.8,45.3,21.9,51,13.6,2.7,27.3,4.8,41.1,6.3,4.5.5,10.1-.5,13.4,1.8,6.2,4.4,5-.3,5.2-3.2.8-9,4.4-16.7,10-23.7-.8-.4-1.6-.9-2.3-1.3ZM747.3,118.5c-.2,2.1.7,5.6-3.9,2.4-2.4-1.7-6.5-1-9.8-1.3-10.1-1.1-20.2-2.6-30.2-4.6-21.1-4.2-27.7-19.3-16.1-37.5,5.7-9,12.8-16.3,21.8-20.7-5.7,4.3-10.5,9.8-14.6,16.3-11.6,18.2-5,33.3,16.1,37.5,10,2,20.1,3.6,30.2,4.6,2.2.2,4.7,0,6.9.3-.2,1-.3,2-.4,3Z"/>
        <path class="st0" d="M982.4,182c1.3-11.1-1.3-21.4-5.4-31.3-.7,1.8-1.2,3.1-1.3,3.3,0,.2-.2.4-.3.5-1.1,1.3-.8,2.5,0,4.8,0,.3.2.5.2.8,3.6,11.3,4.4,23.5,2.3,37.1,2.5-4.9,3.9-9.9,4.5-15.1Z"/>
        <path class="st0" d="M935.3,144.2c4.3,1.9,8.9,2.8,13.4,3.4,10.9,1.5,15.8,8.1,17.9,18.3,2.3,11.6,2.8,23.1.4,34.7-.6,2.7-2.2,6,1.3,8.3,1.4-1.2,2.1-2.8,2.5-4.6,3.2-14.6,3.7-29.2-.9-43.6-.8-2.5-1.9-4.9.1-7.3,0,0,8.2-20.4,10-27.5,2.6-10-2.6-16.5-12.6-18-13.5-2-29.8-3.3-37.8,8.1-1.1,1.6-3,9-3.2,12.1-.7,8.1-.2,12.3,8.9,16.2Z"/>
        <path class="st0" d="M810,260.1c-.7,1.5.5,3.8.8,5.7,1.4-1.3,3.7-2.4,4.1-4,.8-3.1,2.4-5.2,4.6-6.8l-8.4,1.5c-.2,1.2-.5,2.4-1,3.6Z"/>
        <path class="st0" d="M831.2,247.6c-7.8-5.6-15.3-8.2-25-8.9,1.2,3.9,1.7,6.8,3,9.2,1.6,2.9,2.3,5.7,1.9,8.6l8.4-1.5c1.1-.8,2.4-1.5,3.8-2.1,2.6-1.1,4.8-3.2,7.9-5.3Z"/>
        <path class="st0" d="M779.4,209c-1,1.5-1.1,4.9,0,6.2,1.7,2.2,4.3,1.5,6.2-.8.8-.9,1.6-1.7,2.4-2.3l-3.1-7.9c-2.2,1.1-4.1,2.7-5.4,4.7Z"/>
        <path class="st0" d="M794.5,211.6c3.7,1.3,5.2,4,5.3,7.8,0,2.8,1.5,5.2,4.3,4.5,1.7-.4,3.7-3.1,3.9-4.9.7-6.4-4.1-13-10.4-15.3-4.2-1.5-8.9-1.2-12.7.7l3.1,7.9c1.9-1.2,4-1.5,6.5-.7Z"/>
        <path class="st0" d="M857.9,220.4c-6.5-2.4-14.5-.3-18.1,5.4-1,1.5-1.1,4.9,0,6.2,1.7,2.2,4.3,1.5,6.2-.8,2.3-2.9,5.2-4.2,9-2.9,3.7,1.3,5.2,4,5.3,7.8,0,2.8,1.5,5.2,4.3,4.5,1.7-.4,3.7-3.1,3.9-4.9.7-6.4-4.1-13-10.4-15.3Z"/>
        <path class="st0" d="M886.3,112.4c-3.8-2-7.4-2-10.7,1-2.7,2.4-3.4,5.3-2.7,8.4,1.5,2.9,3.6,5.5,6.3,5.4,2.6-.1,15.1-1.7,25.4-3.8l-18.3-11Z"/>
        <path class="st0" d="M966.5,215.5c-2.8,4.8-6.1,9-9.7,12.8-.3.3-.6.6-.9.9,10.7.7,23.4,5,32.4,10.1,0,0,.1,0,.2.1,1.9,1.2.2,4.1-1.7,3-.7-.4-1.4-.8-2-1.2-7.9-4.4-16.4-6.7-25.4-7.7-.8,0-6.4-.1-9.9-.1-2,.9-4.1,1.6-6.4,2-6,1-12.2,1.6-18.5,1.6h0c-10,0-20.5-1.3-31.3-3.9,0,.5,0,1,0,1.4,6.4,2.6,13.2,4.7,20.2,6,42.5,8.3,72.4,18.6,78.2,6.9,6.1-12.2-1.8-22.9-25.3-32Z"/>
        <g>
          <path class="st0" d="M790.6,237.4c-5.5-6.1-12.3-10.2-20.3-12.5-2.6-.5-5.3-1-7.9-1.3-1.4-.2-3.3-.7-3.6,1.5-.4,2.5,1.7,2,3,2.1,10.2,1.1,19,5.1,26,12.7,1,1.1,2,2.7,3.7,1.2,1.8-1.6,0-2.7-.9-3.7Z"/>
          <path class="st0" d="M789,246.3c-9.5-3.1-19.1-4.7-28.9-.9-1,.4-3,.6-2.2,2.6.6,1.6,1.8,1.5,3.3.9,7.5-3.1,15-2.1,22.6-.3,1.3.4,2.6.7,3.9,1.1,1.2.3,2.4.7,3-.8.6-1.5-.5-2.1-1.7-2.5Z"/>
          <path class="st0" d="M876.7,260.3c-2.3-1.3-4.8-2.4-7.2-3.5-7.8-2.8-15.7-3.4-23.8-1.6-1.3.3-3.4.2-2.9,2.5.5,2.2,2.3,1.4,3.7,1.1,10.2-2.1,19.6-.2,28.6,4.8,1.2.6,2.6,2.3,3.7,0,1-2-.8-2.7-2.1-3.4Z"/>
          <path class="st0" d="M841.8,263.4c-1.2-.4-2.4-.5-2.8,1.1-.4,1.6.8,2,1.9,2.4,1.2.5,2.5.9,3.8,1.4,7.2,2.9,13.9,6.6,18.2,13.4.8,1.3,1.8,2.1,3.2,1.2,1.8-1.2.3-2.4-.3-3.4-5.7-8.7-14.4-13-24-16.1Z"/>
        </g>
        <path class="st0" d="M960.2,200.2c0-.4.2-.7.2-1,2-10,1.9-20.5-.4-32.1-1.7-8.4-5.1-12-12.3-13-4.2-.6-9.8-1.5-15.2-3.9-6-2.6-9.6-5.7-11.5-9.9-1.9-4.1-1.7-8.4-1.4-12.9-11.6,4.7-32.5,8-38.3,7.5-8-.6-13-2.9-15.9-6.9-.3-.3-.6-.7-.8-1-.5-.9-.8-1.7-1.1-2.7-.1-.4-.3-.8-.4-1.2,0-.3-.1-.6-.1-.9-.9-5.8,1.5-12.3,6.2-16.3,3.1-2.7,7.2-4.3,11.2-4.5-7.8-9.3-18-14.9-30.4-16.9-9-1.4-17.8-.7-26.5,1.2-1.6.3-3.3.8-3.8-1.4-.6-2.4,1.5-2.3,2.9-2.8,1.7-.6,4.3.3,4.6-2.6-.4-5,2.5-8.9,4.4-13.2.6-1.4,2.5-2.8,1.2-4.2-1.4-1.4-3.3-.5-4.9.4-13.4,7.3-22.6,17.9-25.7,33.2-.3,1.5.2,3.3-1.6,4.3-4.8-6.6-5.2-14.6-6.6-23-5.8,8.7-6.2,17.7-6.2,27.5-5.9-5.3-10.7-9.7-18.7-12.3,2.3,4.1,3.5,6.9,5.2,9.3,2.3,3.3,1.7,5.2-1.4,7.7-6.4,5.1-8.6,12.6-9.7,20.4-.4,3,.6,4.2,3.6,2.9,5.9-2.4,11.7-4.8,17.7-7,1.7-.7,3.9-3.7,5.4-.3,1.3,3.1-2.2,3.3-3.8,4.1-16.2,7.9-33.4,12.3-51.4,13.5-8.9.6-17.7,0-26.3-1.4l-27.6-6.4c-14.7-4.2-24.6,2.4-27.4,17.6-1.8,9.7-1.3,19.4,0,29,.7,5.2,1.7,10.3,2.9,15.4,2.8,11.3,7,22,13.7,31.9,11.4,16.8,27.1,24.3,44.4,13.7,47-28.8,67.3-69.6,67.3-69.6,1.9-3.3,4-6.5,6.1-9.6,6.1-8.8,6.8-8.6,11.4,1,1.3,2.6,2.9,5.1,3.7,7.9,4,13.2,12.8,16.3,24.8,19.4,20.4,5.4,38.2,3.3,55.2-8.3,4.8-3.3,7.2-2.2,7.6,4.8.6,12.9,1.4,25.9,2.2,38.8.1,0,.3,0,.4,0,.5,0,1,0,1.6.2,10.2,2.5,20.2,3.7,29.7,3.7,6,0,11.8-.5,17.4-1.5,3.9-.7,7.4-2.5,10.1-5.3,3.3-3.3,6.2-7.2,8.8-11.5.2-.3.4-.6.6-.8-1.1-1.5-1.7-3.2-1.9-5.1-.2-2.3.3-4.4.7-5.9ZM777.4,167.1c-1.2,3-2.8,6-4.4,8.8,0,0-17.2,34.6-57.2,59.1-14.7,9-28.1,2.6-37.8-11.6-5.7-8.4-9.3-17.5-11.6-27.1-1.1-4.3-1.9-8.7-2.5-13.1-1.2-8.2-1.6-16.4,0-24.7.6-3,1.5-5.7,2.7-7.9-1.3,7.9-.9,15.9.2,23.8.6,4.4,1.4,8.8,2.5,13.1,2.4,9.6,6,18.7,11.6,27.1,9.7,14.3,23.1,20.7,37.8,11.6,39.9-24.5,57.2-59.1,57.2-59.1,1.5-2.6,3.1-5.1,4.8-7.6M850.7,144.2c-.8,3.2-4,3.3-6.8,1.8-3.8-2-7.4-2-10.7,1-3.3,3-3.6,6.6-2,10.6,1.3,3.1.5,6.1-2.6,6.6-1.9.3-5.2-1.7-6.2-3.5-3.7-6.8-1.4-15.9,4.6-21.1,5.8-5,15.1-6.2,21-2,1.7,1.2,3.3,4.7,2.8,6.6Z"/>
      </g>
    </g>
    <g>
      <path class="st0" d="M670,334.1c4.1-1,11.1-2.2,15.5-2.2,10.1,0,11.7,3.5,10.1,15.4l-5.6,42.2,17.6,7.5c.3,1.3.5,4,.4,5.4-1.1,15.3-5.2,18.7-15.5,16.7l-32.4-8.1,9.8-76.9Z"/>
      <path class="st0" d="M767.9,332.6h-40.6l-23.4,89.1,27.1,4,2.8-15.7h8.5v.6c.1,4.3-.1,13.8,4.8,17.8,3.4,2.7,20.1,2.7,23.7,0l-3-95.8ZM743.8,386.1l-5.5-.7,4.2-24.2h2.3l-1.1,24.8Z"/>
      <path class="st0" d="M809.9,333.7c5.4-1.2,12.3-1.8,16-1.8,11.9,0,14.1,4.2,13.3,14.9l-2.6,53.4h1.6l11.4-67.6h27.2l-23.1,99.1-40.2.7-3.7-98.8Z"/>
      <path class="st0" d="M901.5,402.2l21.5-3.4c.1,1.5.5,5,.5,7.5.2,12.6-3.2,18.6-14.6,20.7l-23.5,2.7c-11.7,0-14.9-3-13.5-13.8l9.2-83.3h48.3c.1,1.2.3,8.3.3,9.9,0,13.8-6,14.8-16.5,14.8h-7.5l-.2,7.6h18.7c.3,2,.4,4.8.4,6.6,0,12-3,18.7-15.1,19.6h-6.6l-1.5,11.2Z"/>
      <path class="st0" d="M930.6,351.6c0-11.9,1.1-19.2,16.1-19h39.2c.1,2.1.3,4.4.3,6.1,0,12.3-4.7,16.6-12.3,16.3h-3.4c0-.1-6.6,61.3-6.6,61.3l-26.9,6,6.8-64.6-12.3.7c-.6-1.6-.9-4.8-.9-6.9Z"/>
    </g>
  </g>
  <g>
    <path class="st0" d="M671.2,473.2c-4.4,0-8.2-.4-11.7-1.5l1.4-4.4c2.8.9,6.1,1.6,10.3,1.6s6.4-.6,6.4-1.6-1.5-1.2-6.2-1.6c-8.1-.6-11.9-1.9-11.9-6.1s5.2-6,13-6,8.2.4,11,1.4l-1.3,4.5c-2.6-1-6-1.5-9.7-1.5s-6.3.4-6.3,1.2,1.2,1.2,5.6,1.5c8.2.6,12.4,1.4,12.4,5.9s-5.6,6.7-12.9,6.7Z"/>
    <path class="st0" d="M686.7,472.7v-18.7h12.1v4.3h-6.3v2.5h6.3v4.1h-6.3v3.6h6.3v4.3h-12.1Z"/>
    <path class="st0" d="M710.9,472.7l-2.7-6.8h-.8v6.8h-5.8v-18.7h7.9c4.2,0,6.9,2,6.9,5.7s-1.4,4.3-3.2,5l4.1,8h-6.4ZM708.5,458.2h-1.1v3.7h.8c1.6,0,2.4-.6,2.4-2s-.7-1.7-2.1-1.7Z"/>
    <path class="st0" d="M729,472.9h-6.4l-5.1-18.9h6l2.4,12.3,2.4-12.3h5.8l-5.1,18.9Z"/>
    <path class="st0" d="M736.1,472.7v-18.7h5.8v18.7h-5.8Z"/>
    <path class="st0" d="M753.8,472.9c-6.2,0-9.6-4.2-9.6-9.8s3.9-9.3,9.7-9.3,1.5,0,2.4.1l-.3,4.5c-.3,0-.6,0-.9,0-3.3,0-4.8,1.9-4.8,4.7s1.8,5.2,4.8,5.2.6,0,.9,0l.3,4.5c-.8,0-1.6,0-2.4,0Z"/>
    <path class="st0" d="M758.6,472.7v-18.7h5.8v18.7h-5.8Z"/>
    <path class="st0" d="M774.6,473.2c-5.5,0-7.8-4.3-7.8-9.9s2.4-9.9,7.8-9.9,7.8,4.2,7.8,9.9-2.4,9.9-7.8,9.9ZM774.6,457.9c-1.5,0-2,1.7-2,5.4s.5,5.4,2,5.4,2-1.7,2-5.4-.5-5.4-2-5.4Z"/>
    <path class="st0" d="M786.6,472.9c-.8,0-1.6,0-2.4,0l.2-4.6c.9.2,2,.3,2.9.3,2.5,0,3.3-.6,3.3-1.2s-.7-1.2-2.6-2.2c-2.4-1.2-4-2.8-4-5.5,0-3.8,3.7-5.7,8.8-5.7s2,0,3,.2l-.2,4.6c-.9-.2-2-.3-3-.3-2.1,0-2.7.4-2.7.9s.9,1.1,2.4,1.9c2.5,1.2,4.2,2.7,4.2,5.6,0,4.5-4.4,6.2-9.8,6.2Z"/>
    <path class="st0" d="M818.1,472.9h-6.4l-5.1-18.9h6l2.4,12.3,2.4-12.3h5.8l-5.1,18.9Z"/>
    <path class="st0" d="M825.2,472.7v-18.7h12.1v4.3h-6.3v2.5h6.3v4.1h-6.3v3.6h6.3v4.3h-12.1Z"/>
    <path class="st0" d="M848.3,458.7v14h-5.8v-14h-3.7v-4.7h13.1v4.7h-3.7Z"/>
    <path class="st0" d="M854,472.7v-18.7h12.1v4.3h-6.3v2.5h6.3v4.1h-6.3v3.6h6.3v4.3h-12.1Z"/>
    <path class="st0" d="M878.2,472.7l-2.7-6.8h-.8v6.8h-5.8v-18.7h7.9c4.2,0,6.9,2,6.9,5.7s-1.4,4.3-3.2,5l4.1,8h-6.4ZM875.8,458.2h-1.1v3.7h.8c1.6,0,2.4-.6,2.4-2s-.8-1.7-2.1-1.7Z"/>
    <path class="st0" d="M886.6,472.7v-18.7h5.8v18.7h-5.8Z"/>
    <path class="st0" d="M910.6,473h-.8l-8.5-7.4v7.1h-5.8v-19h.8l8.5,7.4v-7.1h5.8v19Z"/>
    <path class="st0" d="M923.3,472.7l-.6-2.9h-3.6l-.6,2.9h-5.8l5.1-18.9h6.4l5.1,18.9h-6ZM920.8,458.9l-1.2,6.6h2.4l-1.2-6.6Z"/>
    <path class="st0" d="M940.6,472.7l-2.7-6.8h-.8v6.8h-5.8v-18.7h7.9c4.2,0,6.9,2,6.9,5.7s-1.4,4.3-3.2,5l4.1,8h-6.4ZM938.1,458.2h-1.1v3.7h.8c1.6,0,2.4-.6,2.4-2s-.8-1.7-2.1-1.7Z"/>
    <path class="st0" d="M948.9,472.7v-18.7h5.8v18.7h-5.8Z"/>
    <path class="st0" d="M964.9,473.2c-5.5,0-7.8-4.3-7.8-9.9s2.4-9.9,7.8-9.9,7.8,4.2,7.8,9.9-2.4,9.9-7.8,9.9ZM964.9,457.9c-1.5,0-2,1.7-2,5.4s.5,5.4,2,5.4,2-1.7,2-5.4-.5-5.4-2-5.4Z"/>
    <path class="st0" d="M976.9,472.9c-.8,0-1.6,0-2.4,0l.2-4.6c.9.2,2,.3,2.9.3,2.5,0,3.3-.6,3.3-1.2s-.7-1.2-2.6-2.2c-2.4-1.2-4-2.8-4-5.5,0-3.8,3.7-5.7,8.8-5.7s2,0,3,.2l-.2,4.6c-.9-.2-2-.3-3-.3-2.1,0-2.7.4-2.7.9s.9,1.1,2.4,1.9c2.5,1.2,4.2,2.7,4.2,5.6,0,4.5-4.4,6.2-9.8,6.2Z"/>
  </g>
</svg>